<mxfile host="app.diagrams.net" modified="2020-12-19T07:01:18.539Z" agent="5.0 (Macintosh; Intel Mac OS X 10_15_6) AppleWebKit/537.36 (KHTML, like Gecko) Chrome/87.0.4280.67 Safari/537.36" etag="hDo6xz7bbiNWFw2ly9ij" version="14.1.1" type="github">
  <diagram id="WwSOnB_FdPrwlYixW2Kx" name="Page-1">
    <mxGraphModel dx="786" dy="426" grid="1" gridSize="10" guides="1" tooltips="1" connect="1" arrows="1" fold="1" page="1" pageScale="1" pageWidth="827" pageHeight="1169" math="0" shadow="0">
      <root>
        <mxCell id="0" />
        <mxCell id="1" parent="0" />
        <mxCell id="PfYtfeVrxTqz0i9ZNfW3-1" value="" style="shape=table;html=1;whiteSpace=wrap;startSize=0;container=1;collapsible=0;childLayout=tableLayout;comic=1;fontFamily=Architects Daughter;fontSource=https%3A%2F%2Ffonts.googleapis.com%2Fcss%3Ffamily%3DArchitects%2BDaughter;fillColor=#FA7F72;" vertex="1" parent="1">
          <mxGeometry x="110" y="200" width="600" height="40" as="geometry" />
        </mxCell>
        <mxCell id="PfYtfeVrxTqz0i9ZNfW3-2" value="" style="shape=partialRectangle;html=1;whiteSpace=wrap;collapsible=0;dropTarget=0;pointerEvents=0;fillColor=none;top=0;left=0;bottom=0;right=0;points=[[0,0.5],[1,0.5]];portConstraint=eastwest;" vertex="1" parent="PfYtfeVrxTqz0i9ZNfW3-1">
          <mxGeometry width="600" height="40" as="geometry" />
        </mxCell>
        <mxCell id="PfYtfeVrxTqz0i9ZNfW3-3" value="&lt;font face=&quot;Architects Daughter&quot; data-font-src=&quot;https://fonts.googleapis.com/css?family=Architects+Daughter&quot;&gt;1&lt;/font&gt;" style="shape=partialRectangle;html=1;whiteSpace=wrap;connectable=0;overflow=hidden;top=0;left=0;bottom=0;right=0;fixDash=0;fillColor=#28ABB9;" vertex="1" parent="PfYtfeVrxTqz0i9ZNfW3-2">
          <mxGeometry width="60" height="40" as="geometry" />
        </mxCell>
        <mxCell id="PfYtfeVrxTqz0i9ZNfW3-4" value="" style="shape=partialRectangle;html=1;whiteSpace=wrap;connectable=0;overflow=hidden;fillColor=none;top=0;left=0;bottom=0;right=0;fontFamily=Architects Daughter;fontSource=https%3A%2F%2Ffonts.googleapis.com%2Fcss%3Ffamily%3DArchitects%2BDaughter;" vertex="1" parent="PfYtfeVrxTqz0i9ZNfW3-2">
          <mxGeometry x="60" width="60" height="40" as="geometry" />
        </mxCell>
        <mxCell id="PfYtfeVrxTqz0i9ZNfW3-5" value="" style="shape=partialRectangle;html=1;whiteSpace=wrap;connectable=0;overflow=hidden;fillColor=none;top=0;left=0;bottom=0;right=0;" vertex="1" parent="PfYtfeVrxTqz0i9ZNfW3-2">
          <mxGeometry x="120" width="60" height="40" as="geometry" />
        </mxCell>
        <mxCell id="PfYtfeVrxTqz0i9ZNfW3-6" value="" style="shape=partialRectangle;html=1;whiteSpace=wrap;connectable=0;overflow=hidden;fillColor=none;top=0;left=0;bottom=0;right=0;" vertex="1" parent="PfYtfeVrxTqz0i9ZNfW3-2">
          <mxGeometry x="180" width="60" height="40" as="geometry" />
        </mxCell>
        <mxCell id="PfYtfeVrxTqz0i9ZNfW3-7" value="&lt;font face=&quot;Architects Daughter&quot; data-font-src=&quot;https://fonts.googleapis.com/css?family=Architects+Daughter&quot;&gt;...&lt;/font&gt;" style="shape=partialRectangle;html=1;whiteSpace=wrap;connectable=0;overflow=hidden;fillColor=none;top=0;left=0;bottom=0;right=0;" vertex="1" parent="PfYtfeVrxTqz0i9ZNfW3-2">
          <mxGeometry x="240" width="60" height="40" as="geometry" />
        </mxCell>
        <mxCell id="PfYtfeVrxTqz0i9ZNfW3-8" value="" style="shape=partialRectangle;html=1;whiteSpace=wrap;connectable=0;overflow=hidden;fillColor=none;top=0;left=0;bottom=0;right=0;" vertex="1" parent="PfYtfeVrxTqz0i9ZNfW3-2">
          <mxGeometry x="300" width="60" height="40" as="geometry" />
        </mxCell>
        <mxCell id="PfYtfeVrxTqz0i9ZNfW3-9" value="" style="shape=partialRectangle;html=1;whiteSpace=wrap;connectable=0;overflow=hidden;fillColor=none;top=0;left=0;bottom=0;right=0;" vertex="1" parent="PfYtfeVrxTqz0i9ZNfW3-2">
          <mxGeometry x="360" width="60" height="40" as="geometry" />
        </mxCell>
        <mxCell id="PfYtfeVrxTqz0i9ZNfW3-10" value="" style="shape=partialRectangle;html=1;whiteSpace=wrap;connectable=0;overflow=hidden;fillColor=none;top=0;left=0;bottom=0;right=0;" vertex="1" parent="PfYtfeVrxTqz0i9ZNfW3-2">
          <mxGeometry x="420" width="60" height="40" as="geometry" />
        </mxCell>
        <mxCell id="PfYtfeVrxTqz0i9ZNfW3-11" value="" style="shape=partialRectangle;html=1;whiteSpace=wrap;connectable=0;overflow=hidden;fillColor=none;top=0;left=0;bottom=0;right=0;" vertex="1" parent="PfYtfeVrxTqz0i9ZNfW3-2">
          <mxGeometry x="480" width="60" height="40" as="geometry" />
        </mxCell>
        <mxCell id="PfYtfeVrxTqz0i9ZNfW3-12" value="" style="shape=partialRectangle;html=1;whiteSpace=wrap;connectable=0;overflow=hidden;fillColor=none;top=0;left=0;bottom=0;right=0;" vertex="1" parent="PfYtfeVrxTqz0i9ZNfW3-2">
          <mxGeometry x="540" width="60" height="40" as="geometry" />
        </mxCell>
        <mxCell id="PfYtfeVrxTqz0i9ZNfW3-13" value="tagged pointer" style="text;html=1;align=center;verticalAlign=middle;resizable=0;points=[];autosize=1;fontFamily=Architects Daughter;" vertex="1" parent="1">
          <mxGeometry x="90" y="120" width="100" height="20" as="geometry" />
        </mxCell>
        <mxCell id="PfYtfeVrxTqz0i9ZNfW3-14" value="" style="shape=curlyBracket;whiteSpace=wrap;html=1;rounded=1;comic=1;fillColor=#FA7F72;fontFamily=Architects Daughter;fontSource=https%3A%2F%2Ffonts.googleapis.com%2Fcss%3Ffamily%3DArchitects%2BDaughter;direction=north;" vertex="1" parent="1">
          <mxGeometry x="110" y="250" width="600" height="20" as="geometry" />
        </mxCell>
        <mxCell id="PfYtfeVrxTqz0i9ZNfW3-15" value="64 bits" style="text;html=1;align=center;verticalAlign=middle;resizable=0;points=[];autosize=1;fontFamily=Architects Daughter;" vertex="1" parent="1">
          <mxGeometry x="380" y="280" width="60" height="20" as="geometry" />
        </mxCell>
        <mxCell id="PfYtfeVrxTqz0i9ZNfW3-17" value="" style="shape=table;html=1;whiteSpace=wrap;startSize=0;container=1;collapsible=0;childLayout=tableLayout;comic=1;fontFamily=Architects Daughter;fontSource=https%3A%2F%2Ffonts.googleapis.com%2Fcss%3Ffamily%3DArchitects%2BDaughter;" vertex="1" parent="1">
          <mxGeometry x="110" y="350" width="600" height="40" as="geometry" />
        </mxCell>
        <mxCell id="PfYtfeVrxTqz0i9ZNfW3-18" value="" style="shape=partialRectangle;html=1;whiteSpace=wrap;collapsible=0;dropTarget=0;pointerEvents=0;fillColor=none;top=0;left=0;bottom=0;right=0;points=[[0,0.5],[1,0.5]];portConstraint=eastwest;" vertex="1" parent="PfYtfeVrxTqz0i9ZNfW3-17">
          <mxGeometry width="600" height="40" as="geometry" />
        </mxCell>
        <mxCell id="PfYtfeVrxTqz0i9ZNfW3-19" value="&lt;font face=&quot;Architects Daughter&quot; data-font-src=&quot;https://fonts.googleapis.com/css?family=Architects+Daughter&quot;&gt;1&lt;/font&gt;" style="shape=partialRectangle;html=1;whiteSpace=wrap;connectable=0;overflow=hidden;top=0;left=0;bottom=0;right=0;fillColor=#FA7F72;fixDash=0;" vertex="1" parent="PfYtfeVrxTqz0i9ZNfW3-18">
          <mxGeometry width="60" height="40" as="geometry" />
        </mxCell>
        <mxCell id="PfYtfeVrxTqz0i9ZNfW3-20" value="1" style="shape=partialRectangle;html=1;whiteSpace=wrap;connectable=0;overflow=hidden;top=0;left=0;bottom=0;right=0;fontFamily=Architects Daughter;fontSource=https%3A%2F%2Ffonts.googleapis.com%2Fcss%3Ffamily%3DArchitects%2BDaughter;fillColor=#f5f5f5;comic=1;strokeColor=#666666;fontColor=#333333;" vertex="1" parent="PfYtfeVrxTqz0i9ZNfW3-18">
          <mxGeometry x="60" width="60" height="40" as="geometry" />
        </mxCell>
        <mxCell id="PfYtfeVrxTqz0i9ZNfW3-21" value="1" style="shape=partialRectangle;html=1;whiteSpace=wrap;connectable=0;overflow=hidden;fillColor=#f5f5f5;top=0;left=0;bottom=0;right=0;fontFamily=Architects Daughter;fontSource=https%3A%2F%2Ffonts.googleapis.com%2Fcss%3Ffamily%3DArchitects%2BDaughter;strokeColor=#666666;fontColor=#333333;" vertex="1" parent="PfYtfeVrxTqz0i9ZNfW3-18">
          <mxGeometry x="120" width="60" height="40" as="geometry" />
        </mxCell>
        <mxCell id="PfYtfeVrxTqz0i9ZNfW3-22" value="" style="shape=partialRectangle;html=1;whiteSpace=wrap;connectable=0;overflow=hidden;fillColor=none;top=0;left=0;bottom=0;right=0;fontFamily=Architects Daughter;fontSource=https%3A%2F%2Ffonts.googleapis.com%2Fcss%3Ffamily%3DArchitects%2BDaughter;" vertex="1" parent="PfYtfeVrxTqz0i9ZNfW3-18">
          <mxGeometry x="180" width="60" height="40" as="geometry" />
        </mxCell>
        <mxCell id="PfYtfeVrxTqz0i9ZNfW3-23" value="&lt;font face=&quot;Architects Daughter&quot; data-font-src=&quot;https://fonts.googleapis.com/css?family=Architects+Daughter&quot;&gt;...&lt;/font&gt;" style="shape=partialRectangle;html=1;whiteSpace=wrap;connectable=0;overflow=hidden;fillColor=none;top=0;left=0;bottom=0;right=0;" vertex="1" parent="PfYtfeVrxTqz0i9ZNfW3-18">
          <mxGeometry x="240" width="60" height="40" as="geometry" />
        </mxCell>
        <mxCell id="PfYtfeVrxTqz0i9ZNfW3-24" value="" style="shape=partialRectangle;html=1;whiteSpace=wrap;connectable=0;overflow=hidden;fillColor=none;top=0;left=0;bottom=0;right=0;" vertex="1" parent="PfYtfeVrxTqz0i9ZNfW3-18">
          <mxGeometry x="300" width="60" height="40" as="geometry" />
        </mxCell>
        <mxCell id="PfYtfeVrxTqz0i9ZNfW3-25" value="" style="shape=partialRectangle;html=1;whiteSpace=wrap;connectable=0;overflow=hidden;fillColor=none;top=0;left=0;bottom=0;right=0;" vertex="1" parent="PfYtfeVrxTqz0i9ZNfW3-18">
          <mxGeometry x="360" width="60" height="40" as="geometry" />
        </mxCell>
        <mxCell id="PfYtfeVrxTqz0i9ZNfW3-26" value="" style="shape=partialRectangle;html=1;whiteSpace=wrap;connectable=0;overflow=hidden;fillColor=none;top=0;left=0;bottom=0;right=0;" vertex="1" parent="PfYtfeVrxTqz0i9ZNfW3-18">
          <mxGeometry x="420" width="60" height="40" as="geometry" />
        </mxCell>
        <mxCell id="PfYtfeVrxTqz0i9ZNfW3-27" value="" style="shape=partialRectangle;html=1;whiteSpace=wrap;connectable=0;overflow=hidden;fillColor=none;top=0;left=0;bottom=0;right=0;" vertex="1" parent="PfYtfeVrxTqz0i9ZNfW3-18">
          <mxGeometry x="480" width="60" height="40" as="geometry" />
        </mxCell>
        <mxCell id="PfYtfeVrxTqz0i9ZNfW3-28" value="" style="shape=partialRectangle;html=1;whiteSpace=wrap;connectable=0;overflow=hidden;fillColor=none;top=0;left=0;bottom=0;right=0;" vertex="1" parent="PfYtfeVrxTqz0i9ZNfW3-18">
          <mxGeometry x="540" width="60" height="40" as="geometry" />
        </mxCell>
        <mxCell id="PfYtfeVrxTqz0i9ZNfW3-29" value="tagged pointer" style="text;html=1;align=center;verticalAlign=middle;resizable=0;points=[];autosize=1;fontFamily=Architects Daughter;" vertex="1" parent="1">
          <mxGeometry x="90" y="310" width="100" height="20" as="geometry" />
        </mxCell>
        <mxCell id="PfYtfeVrxTqz0i9ZNfW3-30" value="" style="shape=curlyBracket;whiteSpace=wrap;html=1;rounded=1;comic=1;fillColor=#FA7F72;fontFamily=Architects Daughter;fontSource=https%3A%2F%2Ffonts.googleapis.com%2Fcss%3Ffamily%3DArchitects%2BDaughter;direction=north;" vertex="1" parent="1">
          <mxGeometry x="110" y="400" width="600" height="20" as="geometry" />
        </mxCell>
        <mxCell id="PfYtfeVrxTqz0i9ZNfW3-31" value="64 bits" style="text;html=1;align=center;verticalAlign=middle;resizable=0;points=[];autosize=1;fontFamily=Architects Daughter;" vertex="1" parent="1">
          <mxGeometry x="380" y="430" width="60" height="20" as="geometry" />
        </mxCell>
      </root>
    </mxGraphModel>
  </diagram>
</mxfile>
